<svg xmlns="http://www.w3.org/2000/svg" width="1000" height="1000">
  <defs>
    <filter id="glow" x="-50%" y="-50%" width="200%" height="200%">
      <feGaussianBlur stdDeviation="1.5" result="coloredBlur"/>
      <feMerge>
        <feMergeNode in="coloredBlur"/>
        <feMergeNode in="SourceGraphic"/>
      </feMerge>
    </filter>
  </defs>
  <circle cx="50" cy="50" r="1.5" fill="#fff" filter="url(#glow)"/>
  <circle cx="150" cy="200" r="1" fill="#fff" filter="url(#glow)"/>
  <circle cx="300" cy="100" r="1.2" fill="#fff" filter="url(#glow)"/>
  <circle cx="450" cy="300" r="0.8" fill="#fff" filter="url(#glow)"/>
  <circle cx="600" cy="150" r="1.5" fill="#fff" filter="url(#glow)"/>
  <circle cx="750" cy="250" r="1" fill="#fff" filter="url(#glow)"/>
  <circle cx="900" cy="50" r="1.2" fill="#fff" filter="url(#glow)"/>
  <circle cx="800" cy="400" r="0.8" fill="#fff" filter="url(#glow)"/>
  <circle cx="950" cy="350" r="1.5" fill="#fff" filter="url(#glow)"/>
  <circle cx="100" cy="500" r="1" fill="#fff" filter="url(#glow)"/>
  <circle cx="250" cy="600" r="1.2" fill="#fff" filter="url(#glow)"/>
  <circle cx="400" cy="700" r="0.8" fill="#fff" filter="url(#glow)"/>
  <circle cx="550" cy="800" r="1.5" fill="#fff" filter="url(#glow)"/>
  <circle cx="700" cy="900" r="1" fill="#fff" filter="url(#glow)"/>
  <circle cx="850" cy="750" r="1.2" fill="#fff" filter="url(#glow)"/>
  <circle cx="200" cy="850" r="0.8" fill="#fff" filter="url(#glow)"/>
  <circle cx="350" cy="950" r="1.5" fill="#fff" filter="url(#glow)"/>
  <circle cx="500" cy="450" r="1" fill="#fff" filter="url(#glow)"/>
  <circle cx="650" cy="550" r="1.2" fill="#fff" filter="url(#glow)"/>
  <circle cx="50" cy="750" r="0.8" fill="#fff" filter="url(#glow)"/>
  <circle cx="180" cy="350" r="1.5" fill="#fff" filter="url(#glow)"/>
  <circle cx="320" cy="520" r="1" fill="#fff" filter="url(#glow)"/>
  <circle cx="480" cy="80" r="1.2" fill="#fff" filter="url(#glow)"/>
  <circle cx="620" cy="280" r="0.8" fill="#fff" filter="url(#glow)"/>
  <circle cx="780" cy" r="1.5" fill="#fff" filter="url(#glow)"/>
</svg>